<?xml version="1.0" encoding="utf-8"?>
<!-- Generator: Adobe Illustrator 17.0.0, SVG Export Plug-In . SVG Version: 6.00 Build 0)  -->
<!DOCTYPE svg PUBLIC "-//W3C//DTD SVG 1.1//EN" "http://www.w3.org/Graphics/SVG/1.1/DTD/svg11.dtd">
<svg version="1.1" id="Layer_2" xmlns="http://www.w3.org/2000/svg" xmlns:xlink="http://www.w3.org/1999/xlink" x="0px" y="0px"
	 width="512px" height="512px" viewBox="0 0 512 512" enable-background="new 0 0 512 512" xml:space="preserve">
<g>
	<g>
		<path fill="#007958" d="M256.326,2.698C117.11,2.698,3.86,115.957,3.86,255.169S117.11,507.64,256.326,507.64s252.476-113.258,252.476-252.471
			S395.542,2.698,256.326,2.698z M256.326,474.528c-120.954,0-219.354-98.405-219.354-219.359
			c0-120.955,98.399-219.358,219.354-219.358s219.36,98.404,219.36,219.358C475.688,376.123,377.28,474.528,256.326,474.528z"/>
		<path fill="#007958" d="M347.733,172.518L217.545,302.699l-52.626-52.615c-6.467-6.459-16.943-6.463-23.41,0.004c-6.47,6.47-6.47,16.947,0,23.414
			l64.333,64.323c3.233,3.229,7.468,4.845,11.703,4.845c4.235,0,8.482-1.616,11.713-4.85c0.01-0.014,0.018-0.028,0.034-0.044
			l141.849-141.848c6.47-6.463,6.47-16.948,0-23.412C364.676,166.049,354.193,166.049,347.733,172.518z"/>
	</g>
</g>
</svg>
